<?xml version="1.0" encoding="UTF-8"?>
<svg version="1.1" xmlns="http://www.w3.org/2000/svg" width="500" height="500">
<path d="M0 0 C2.60546875 1.3203125 2.60546875 1.3203125 5.1875 3.125 C8.74624858 5.51976111 12.26630519 7.7526175 16.0625 9.75 C26.31495597 15.23660843 36.1721726 21.50776925 45.9375 27.8125 C49.21021916 29.91216621 52.50775819 31.85618724 55.9375 33.6875 C61.56698638 36.7073994 67.06876059 39.92919453 72.5625 43.1875 C73.45638428 43.71110107 74.35026855 44.23470215 75.27124023 44.77416992 C76.11114502 45.27537354 76.9510498 45.77657715 77.81640625 46.29296875 C78.57381104 46.7418042 79.33121582 47.19063965 80.11157227 47.65307617 C82 49 82 49 84 52 C84.07905064 54.33199388 84.08798769 56.66832622 84 59 C84.825 58.773125 85.65 58.54625 86.5 58.3125 C94.83347712 57.56843954 102.21564153 63.33047099 109 67.5625 C110.01094727 68.18511719 111.02189453 68.80773437 112.06347656 69.44921875 C118.63842545 73.50561375 125.1771302 77.61950134 131.71386719 81.73706055 C135.99701979 84.41875908 140.35577239 86.86878168 144.81640625 89.23828125 C149.3374951 91.74013533 153.75909882 94.40079104 158.1875 97.0625 C159.03151367 97.56958496 159.87552734 98.07666992 160.74511719 98.59912109 C163.16739209 100.05962437 165.58399777 101.52915027 168 103 C168.77811035 103.46647949 169.5562207 103.93295898 170.35791016 104.41357422 C171.08155762 104.85330566 171.80520508 105.29303711 172.55078125 105.74609375 C173.19313721 106.13337646 173.83549316 106.52065918 174.49731445 106.91967773 C176 108 176 108 177 110 C177.10912761 111.53186223 177.15689564 113.06829475 177.17408752 114.60394287 C177.19349144 116.05912323 177.19349144 116.05912323 177.21328735 117.54370117 C177.22226044 118.61177002 177.23123352 119.67983887 177.24047852 120.78027344 C177.25347488 121.90234192 177.26647125 123.0244104 177.27986145 124.18048096 C177.39159612 134.52891212 177.45240071 144.87802386 177.49662876 155.22695541 C177.52986667 162.87558083 177.58941657 170.52302152 177.68413979 178.17113853 C177.7562731 184.1992943 177.78459036 190.2268965 177.79795647 196.25550079 C177.81022614 198.81844561 177.83630862 201.38136262 177.87640572 203.94402313 C177.92972623 207.53103674 177.93288747 211.11482395 177.92407227 214.70214844 C177.95126343 215.76212036 177.97845459 216.82209229 178.00646973 217.91418457 C177.91705588 224.96669721 177.91705588 224.96669721 175.25199699 227.9695816 C173.23066995 229.5091556 171.22820405 230.78455417 169 232 C168.10796875 232.55945313 167.2159375 233.11890625 166.296875 233.6953125 C165.03617187 234.40300781 165.03617187 234.40300781 163.75 235.125 C158.18544635 238.30474494 152.67908359 241.57075083 147.1875 244.875 C145.43882533 245.92712196 143.69012761 246.97920563 141.94140625 248.03125 C141.09723145 248.53914062 140.25305664 249.04703125 139.38330078 249.5703125 C137.31015172 250.81394709 135.23300078 252.0502361 133.15234375 253.28125 C123.66097883 258.90740027 114.35961394 264.81871271 105.06640625 270.765625 C104.20160645 271.31154297 103.33680664 271.85746094 102.44580078 272.41992188 C100.89816567 273.41975163 99.37178328 274.45399321 97.87841797 275.53320312 C93.68447272 278.48046784 90.42767458 279.79389248 85.24560547 279.47119141 C81.14211309 278.61016289 77.99907178 276.50960238 74.5625 274.1875 C72.98471198 273.172653 71.40657688 272.15834541 69.828125 271.14453125 C69.02955078 270.62197754 68.23097656 270.09942383 67.40820312 269.56103516 C63.59100551 267.0866676 59.70153945 264.73416613 55.8125 262.375 C54.31238009 261.45852959 52.81237851 260.54186544 51.3125 259.625 C43.66982336 254.96582814 35.98584495 250.37522293 28.296875 245.79296875 C24.52333226 243.54166822 20.75861852 241.27612443 17 239 C16.27973633 238.56445801 15.55947266 238.12891602 14.81738281 237.68017578 C12.60267437 236.33604699 10.39432213 234.98203018 8.1875 233.625 C7.49922119 233.20806885 6.81094238 232.7911377 6.10180664 232.36157227 C2.99342713 230.43673935 1.05616843 229.08425264 -1 226 C-4.55144663 227.28973588 -7.34632532 228.81490458 -10.375 231.0625 C-18.28311796 236.71616188 -26.7309087 241.49761652 -35.109375 246.41015625 C-36.51046513 247.23168818 -37.91150624 248.05330373 -39.3125 248.875 C-40.37235107 249.49640869 -40.37235107 249.49640869 -41.45361328 250.13037109 C-48.91818888 254.51882053 -56.29913557 259.0411257 -63.67675781 263.57373047 C-67.71844451 266.05497613 -71.76569551 268.52711355 -75.8125 271 C-76.55943115 271.45689209 -77.3063623 271.91378418 -78.07592773 272.38452148 C-79.45464414 273.22748282 -80.83622753 274.06578043 -82.22119141 274.8984375 C-83.69102841 275.80866322 -85.10977143 276.80083039 -86.51171875 277.8125 C-90.08089332 279.51584234 -93.17866234 279.74434953 -97 279 C-100.28368692 277.60154262 -103.19721725 275.75013149 -106.1875 273.8125 C-107.05479736 273.27149658 -107.92209473 272.73049316 -108.81567383 272.1730957 C-110.64218865 271.03199604 -112.46399513 269.88332865 -114.28125 268.72753906 C-117.71401871 266.54630061 -121.17123662 264.40611681 -124.63085938 262.26782227 C-126.349659 261.20539007 -128.0670872 260.14073628 -129.78320312 259.07397461 C-136.71063229 254.77236733 -143.69048561 250.56228574 -150.6875 246.375 C-151.73518555 245.747146 -152.78287109 245.11929199 -153.86230469 244.47241211 C-159.84145088 240.88925861 -159.84145088 240.88925861 -165.82617188 237.31542969 C-168.36694926 235.79963548 -170.90276672 234.2758726 -173.4375 232.75 C-174.18281982 232.30833496 -174.92813965 231.86666992 -175.69604492 231.41162109 C-178.88921005 229.48058709 -180.90073597 228.14889605 -183 225 C-183.27123547 222.8360014 -183.27123547 222.8360014 -183.30107117 220.27580261 C-183.32470482 218.81856026 -183.32470482 218.81856026 -183.34881592 217.33187866 C-183.35576477 216.26740509 -183.36271362 215.20293152 -183.36987305 214.10620117 C-183.38462173 212.98398666 -183.39937042 211.86177216 -183.41456604 210.70555115 C-183.4591604 206.98469969 -183.48733049 203.2640051 -183.51171875 199.54296875 C-183.52111795 198.27343164 -183.53051716 197.00389454 -183.54020119 195.69588661 C-183.57799736 190.36091154 -183.61189906 185.02598771 -183.63057232 179.6909132 C-183.65737781 172.05167726 -183.71492904 164.41413537 -183.81633729 156.77551287 C-183.89356135 150.75211703 -183.92132962 144.7294849 -183.93177223 138.70556068 C-183.94337351 136.14539515 -183.97027229 133.58525183 -184.01270103 131.02541161 C-184.06856544 127.44297454 -184.06785162 123.86473112 -184.0534668 120.28198242 C-184.09728989 118.6943811 -184.09728989 118.6943811 -184.14199829 117.07470703 C-184.03242786 110.03946134 -184.03242786 110.03946134 -181.07377052 107.06064796 C-178.77505441 105.50541278 -176.48410067 104.23273021 -174 103 C-172.59079177 102.16688999 -171.18618167 101.32588433 -169.7890625 100.47265625 C-168.40233662 99.66703767 -167.01429474 98.86368044 -165.625 98.0625 C-160.72851542 95.21468659 -155.87995644 92.33115712 -151.125 89.25 C-147.83909228 87.12392174 -144.52796476 85.16811191 -141.0703125 83.3359375 C-134.14921935 79.5901587 -127.45701496 75.48598054 -120.75 71.375 C-117.17124004 69.18610437 -113.59045119 67.00074647 -110.00415039 64.82421875 C-108.2558459 63.76259086 -106.51097048 62.69519503 -104.77514648 61.61328125 C-101.33532544 59.52440067 -98.58967421 58.47066708 -94.5625 58.25 C-93.69753906 58.19328125 -92.83257812 58.1365625 -91.94140625 58.078125 C-91.30074219 58.05234375 -90.66007812 58.0265625 -90 58 C-90.020625 56.80375 -90.04125 55.6075 -90.0625 54.375 C-89.70969568 51.52415373 -89.41071194 50.36299037 -87.23291016 48.43823242 C-86.48831543 47.97779541 -85.7437207 47.5173584 -84.9765625 47.04296875 C-84.16034424 46.53217773 -83.34412598 46.02138672 -82.50317383 45.49511719 C-81.67712646 45.00172852 -80.8510791 44.50833984 -80 44 C-78.92818481 43.35659668 -78.92818481 43.35659668 -77.8347168 42.70019531 C-75.6717447 41.42563623 -73.49474987 40.17873863 -71.3125 38.9375 C-69.64536767 37.97997698 -67.97872107 37.02160786 -66.3125 36.0625 C-65.44753906 35.56492188 -64.58257812 35.06734375 -63.69140625 34.5546875 C-59.05044041 31.87383931 -54.42927062 29.15975842 -49.8125 26.4375 C-48.43288086 25.62490723 -48.43288086 25.62490723 -47.02539062 24.79589844 C-40.54364952 20.95990717 -34.13882886 17.01426255 -27.83325195 12.89428711 C-23.32272984 10 -23.32272984 10 -20 10 C-20 9.34 -20 8.68 -20 8 C-19.11248047 7.51080078 -19.11248047 7.51080078 -18.20703125 7.01171875 C-17.41683594 6.57472656 -16.62664062 6.13773437 -15.8125 5.6875 C-14.9875 5.23375 -14.1625 4.78 -13.3125 4.3125 C-10.89755917 2.9811169 -10.89755917 2.9811169 -8.3125 1.1875 C-5.29352309 -0.36278544 -3.37357125 -0.28596611 0 0 Z M-18.75634766 27.93603516 C-23.38940867 35.62506104 -20.75198534 48.42825704 -20 57 C-23.59855744 55.89779913 -26.62899078 54.82934349 -29.65625 52.58203125 C-30.60177734 51.90817383 -30.60177734 51.90817383 -31.56640625 51.22070312 C-32.8610681 50.27782313 -34.15012669 49.32720341 -35.43359375 48.36914062 C-38.62342774 46.11538266 -40.22908337 44.99066687 -44.2265625 45.0390625 C-46.85898722 45.95114205 -48.6903213 46.85845061 -50.875 48.5625 C-51.90625 49.366875 -52.9375 50.17125 -54 51 C-50.3835367 55.0890145 -46.03841199 57.66556345 -41.4375 60.5 C-39.72642176 61.56618041 -38.01548844 62.63259344 -36.3046875 63.69921875 C-35.42780273 64.24368652 -34.55091797 64.7881543 -33.64746094 65.34912109 C-31.07155575 66.95537993 -28.50649365 68.57741599 -25.9453125 70.20703125 C-17.38984745 75.65064727 -8.8059752 80.96801417 0 86 C3.3 84.02 6.6 82.04 10 80 C8.65413766 75.96241299 6.07605016 75.27107986 2.5 73.4375 C1.89285156 73.15326172 1.28570312 72.86902344 0.66015625 72.57617188 C-1.09375 71.62109375 -1.09375 71.62109375 -4 69 C-4.83826908 65.6579878 -5.01652265 62.43712345 -5 59 C-4.00669678 59.15146484 -3.01339355 59.30292969 -1.98999023 59.45898438 C1.71984565 60.02327841 5.43068138 60.58074614 9.1418457 61.13623047 C10.74336052 61.37690188 12.34460395 61.61938683 13.94555664 61.86376953 C16.2559707 62.21612026 18.56730455 62.56178767 20.87890625 62.90625 C21.58648575 63.0156189 22.29406525 63.12498779 23.02308655 63.2376709 C30.69822237 64.3672447 35.75686245 64.70354723 42.4375 60.5 C44.01337891 59.52546875 44.01337891 59.52546875 45.62109375 58.53125 C46.79865234 57.77328125 46.79865234 57.77328125 48 57 C44.72291513 55.09113717 41.94595148 54.60640881 38.1875 54.25390625 C36.46321777 54.08338745 36.46321777 54.08338745 34.70410156 53.90942383 C33.48174805 53.79493896 32.25939453 53.6804541 31 53.5625 C19.25586264 52.3918845 7.65520324 50.85423688 -4 49 C-4.33 40.09 -4.66 31.18 -5 22 C-10.1175315 22 -15.10089816 24.44320065 -18.75634766 27.93603516 Z M87.4375 91 C86.82197266 91.3815625 86.20644531 91.763125 85.57226562 92.15625 C84.0469461 93.10218459 82.52331524 94.05084113 81 95 C81.33 99.29 81.66 103.58 82 108 C80.52789062 107.85820312 79.05578125 107.71640625 77.5390625 107.5703125 C63.69606523 106.08659305 63.69606523 106.08659305 51.4140625 111.65234375 C50.94742188 112.09707031 50.48078125 112.54179687 50 113 C52.80639615 115.80639615 55.05922281 115.59258815 58.9765625 116.0703125 C59.66181 116.15626678 60.3470575 116.24222107 61.05307007 116.33078003 C63.24280667 116.60357298 65.43378044 116.86441476 67.625 117.125 C69.10947188 117.30780876 70.59384849 117.49139297 72.078125 117.67578125 C75.71768728 118.12619207 79.35845264 118.56589571 83 119 C83.98418466 122.66230255 84.27344377 126.14672887 84.5 129.9375 C84.74650984 134.0533339 85.08384907 137.9765705 86 142 C89.99012371 141.44010697 92.5255052 140.24330232 95.8125 137.9375 C97.194375 136.968125 98.57625 135.99875 100 135 C99.505 127.575 99.505 127.575 99 120 C100.44890625 120.29777344 101.8978125 120.59554687 103.390625 120.90234375 C116.28490733 123.58717582 116.28490733 123.58717582 128.375 119.75 C131.07344477 117.87643273 131.07344477 117.87643273 133 116 C133 115.67 133 115.34 133 115 C126.0840704 113.53910701 119.14834877 112.6159986 112.125 111.875 C110.89463013 111.74375732 110.89463013 111.74375732 109.6394043 111.60986328 C105.74311428 111.21284511 101.92261693 110.88883272 98 111 C97.93941406 110.24074219 97.87882812 109.48148438 97.81640625 108.69921875 C97.73261719 107.70535156 97.64882813 106.71148437 97.5625 105.6875 C97.48128906 104.70136719 97.40007812 103.71523437 97.31640625 102.69921875 C97.08187441 99.90624401 97.08187441 99.90624401 96 97 C95.77991948 95.27467737 95.59496906 93.54465967 95.4375 91.8125 C95.35371094 90.91144531 95.26992188 90.01039063 95.18359375 89.08203125 C95.12300781 88.39496094 95.06242187 87.70789063 95 87 C92.48945885 87 89.58878374 89.65799792 87.4375 91 Z M-105.12890625 96.1328125 C-106.72590445 99.55597456 -105.80629263 102.40269443 -105 106 C-106.051875 105.319375 -107.10375 104.63875 -108.1875 103.9375 C-110.59326549 102.5827503 -111.69873428 102 -114.5 102 C-117.89255434 103.35702174 -120.87645251 105.10137309 -124 107 C-120.30688623 110.94539478 -116.47025868 113.89150544 -111.9375 116.8125 C-110.6028431 117.68746724 -109.26820798 118.56246768 -107.93359375 119.4375 C-107.27214355 119.86804688 -106.61069336 120.29859375 -105.92919922 120.7421875 C-103.10781679 122.58169171 -100.30350705 124.44585218 -97.5 126.3125 C-96.53964844 126.94800781 -95.57929688 127.58351562 -94.58984375 128.23828125 C-92.35184616 129.7606597 -90.20832223 131.35256228 -88.0625 133 C-84.74691986 135.16527683 -83.81344689 135.45670023 -80 135 C-77.49441672 133.73034246 -77.49441672 133.73034246 -75.1875 132 C-74.39730469 131.443125 -73.60710937 130.88625 -72.79296875 130.3125 C-72.20128906 129.879375 -71.60960937 129.44625 -71 129 C-75.63872257 125.1403679 -80.59738328 121.9042819 -85.6484375 118.62304688 C-86.29296875 118.19958984 -86.9375 117.77613281 -87.6015625 117.33984375 C-88.18244629 116.96206787 -88.76333008 116.58429199 -89.36181641 116.19506836 C-91.12987385 114.90525596 -92.59178616 113.67986891 -94 112 C-94.4375 108.5625 -94.4375 108.5625 -94 105 C-92.1875 102.75 -92.1875 102.75 -90 101 C-88.99161219 100.00845876 -87.99002212 99.0098793 -87 98 C-88.38552202 96.98576166 -89.78394288 95.98912998 -91.1875 95 C-91.96480469 94.443125 -92.74210937 93.88625 -93.54296875 93.3125 C-98.60520432 90.60834873 -101.63346658 91.58111847 -105.12890625 96.1328125 Z M-165 141 C-161.28144618 150.07559542 -157.5398301 159.14140975 -153.75 168.1875 C-153.42128906 168.97616455 -153.09257812 169.7648291 -152.75390625 170.57739258 C-151.35307409 173.91187341 -149.92969238 177.13388198 -148.24609375 180.33984375 C-146.69480116 183.65153734 -147.08900478 185.5216546 -148 189 C-148.66 189 -149.32 189 -150 189 C-150 189.66 -150 190.32 -150 191 C-150.66 191 -151.32 191 -152 191 C-152 191.66 -152 192.32 -152 193 C-152.66 193 -153.32 193 -154 193 C-154 193.66 -154 194.32 -154 195 C-154.66 195 -155.32 195 -156 195 C-157.73888091 196.71885317 -157.73888091 196.71885317 -159.5 198.875 C-161.28933258 200.99035504 -163.04019124 203.04019124 -165 205 C-165 205.99 -165 206.98 -165 208 C-163.34076462 209.47389489 -163.34076462 209.47389489 -161.1875 210.6875 C-160.47980469 211.12449219 -159.77210938 211.56148438 -159.04296875 212.01171875 C-156.92814093 213.21773547 -156.92814093 213.21773547 -154 213 C-154 213.66 -154 214.32 -154 215 C-150.1033172 215.44640471 -150.1033172 215.44640471 -148.25390625 213.42578125 C-147.69574219 212.72839844 -147.13757813 212.03101563 -146.5625 211.3125 C-143.84487038 208.0150313 -141.06596429 204.97305628 -138 202 C-137.74863281 202.77214844 -137.49726563 203.54429687 -137.23828125 204.33984375 C-135.62513186 209.10804873 -133.92792554 213.83942428 -132.1875 218.5625 C-131.6915332 219.96145508 -131.6915332 219.96145508 -131.18554688 221.38867188 C-128.2511148 229.29079894 -124.45244261 233.33582775 -117.3125 237.875 C-116.35988281 238.49117188 -115.40726563 239.10734375 -114.42578125 239.7421875 C-113.62527344 240.15726562 -112.82476562 240.57234375 -112 241 C-111.34 240.67 -110.68 240.34 -110 240 C-110.33209473 239.29093506 -110.66418945 238.58187012 -111.00634766 237.85131836 C-122.56852063 213.11677038 -122.56852063 213.11677038 -127.01171875 201.46484375 C-127.77475272 199.09419195 -127.77475272 199.09419195 -129 198 C-129.14636054 194.63370749 -129.07193479 192.21580438 -128 189 C-127.34 189 -126.68 189 -126 189 C-126 188.34 -126 187.68 -126 187 C-125.34 187 -124.68 187 -124 187 C-122.36324492 185.38200498 -122.36324492 185.38200498 -120.6875 183.3125 C-117.91500692 180.04699036 -115.07399141 176.98084015 -112 174 C-113.29312675 170.12061975 -114.92126511 169.3929256 -118.3125 167.1875 C-119.27800781 166.54167969 -120.24351562 165.89585937 -121.23828125 165.23046875 C-123.83250883 163.74103679 -123.83250883 163.74103679 -126.06640625 164.484375 C-128.57229128 166.44858388 -130.54861101 168.64930544 -132.625 171.0625 C-136.80555556 175.90277778 -136.80555556 175.90277778 -139 177 C-139.556875 175.2675 -139.556875 175.2675 -140.125 173.5 C-141.67621141 168.86852592 -143.31797219 164.27276815 -145 159.6875 C-145.37342529 158.64722656 -145.37342529 158.64722656 -145.75439453 157.5859375 C-148.18741273 151.02140902 -150.29232514 148.05817947 -156.5 144.8125 C-157.4590625 144.30332031 -158.418125 143.79414063 -159.40625 143.26953125 C-162.01678638 141.92049773 -162.01678638 141.92049773 -165 141 Z M21 158 C24.18429591 166.25462282 27.83333262 174.24496574 31.640625 182.22851562 C32.07375 183.15986328 32.506875 184.09121094 32.953125 185.05078125 C33.34661133 185.88262939 33.74009766 186.71447754 34.14550781 187.5715332 C35.07022195 190.19957079 35.16146815 192.23501205 35 195 C34.34 195 33.68 195 33 195 C33 195.66 33 196.32 33 197 C32.34 197 31.68 197 31 197 C29.29515534 198.68522729 29.29515534 198.68522729 27.5625 200.8125 C25.45536324 203.31102718 23.34758602 205.7242056 21 208 C21.71259223 211.23205279 21.71259223 211.23205279 24.72265625 212.60546875 C25.82480469 213.12753906 26.92695313 213.64960938 28.0625 214.1875 C29.16722656 214.71730469 30.27195312 215.24710938 31.41015625 215.79296875 C32.26480469 216.19128906 33.11945313 216.58960938 34 217 C34 216.34 34 215.68 34 215 C34.66 215 35.32 215 36 215 C37.35452384 213.24761272 38.49941712 211.40217483 39.68359375 209.53125 C40.11800781 209.0259375 40.55242187 208.520625 41 208 C41.99 208 42.98 208 44 208 C44.22026855 208.60473145 44.44053711 209.20946289 44.66748047 209.83251953 C49.03941993 223.36011911 49.03941993 223.36011911 58.375 233.3125 C61.23897124 234.60810604 62.83317195 235 66 235 C64.53524239 230.14752094 62.50864425 225.85242219 60.1875 221.375 C56.78183589 214.70014647 53.74809683 207.9759381 51 201 C55.46351289 195.77674023 60.0744893 190.79077028 65 186 C63.75272425 182.25817274 62.49563103 181.71693909 59.1875 179.6875 C58.31480469 179.13449219 57.44210937 178.58148438 56.54296875 178.01171875 C54.08787316 176.73147373 54.08787316 176.73147373 51.8359375 177.640625 C49.08733499 179.67576047 47.17622233 182.37737309 45 185 C44.01 185.33 43.02 185.66 42 186 C41.608125 184.7625 41.21625 183.525 40.8125 182.25 C40.53019531 181.43273437 40.24789062 180.61546875 39.95703125 179.7734375 C39.29431256 177.8529058 38.66905482 175.91919168 38.07421875 173.9765625 C35.4600718 166.4288073 32.36489113 163.0531181 25.42578125 159.109375 C23.14143288 157.86136727 23.14143288 157.86136727 21 158 Z M145 162 C144.04366581 163.83724694 144.04366581 163.83724694 143.47265625 165.96484375 C143.2298291 166.76510986 142.98700195 167.56537598 142.73681641 168.38989258 C142.37209229 169.68189575 142.37209229 169.68189575 142 171 C141.74782715 171.88518311 141.4956543 172.77036621 141.23583984 173.68237305 C140.45180774 176.49202832 139.69113805 179.30704904 138.9375 182.125 C138.1846304 184.92028914 137.43089612 187.71529623 136.67138672 190.50878906 C136.25055132 192.07031792 135.8392024 193.63446822 135.44189453 195.20214844 C135.01964285 196.81782756 134.5183935 198.41255435 134 200 C133.01 200.495 133.01 200.495 132 201 C131.85304688 200.45214844 131.70609375 199.90429688 131.5546875 199.33984375 C129.28552062 191.31951252 126.17055263 183.6955161 123 176 C121.18146744 176.92574392 119.37031117 177.86598995 117.5625 178.8125 C116.55316406 179.33457031 115.54382813 179.85664063 114.50390625 180.39453125 C111.71308782 181.81418484 111.71308782 181.81418484 111 185 C111.59535723 187.06745545 111.59535723 187.06745545 112.66015625 189.24609375 C113.03930176 190.07778076 113.41844727 190.90946777 113.80908203 191.76635742 C114.22270996 192.64783447 114.63633789 193.52931152 115.0625 194.4375 C115.4735498 195.33895752 115.88459961 196.24041504 116.30810547 197.16918945 C118.09631904 201.06087565 119.90951453 204.91758064 121.97265625 208.671875 C124.89272044 214.00116473 127.00223893 218.01282632 125.74609375 224.16015625 C124.10516509 228.20663477 120.98054442 229.56420248 117.1875 231.25 C116.465625 231.4975 115.74375 231.745 115 232 C115 235.3 115 238.6 115 242 C118.34373475 241.44271087 121.03312999 240.64826111 124 239 C124 238.34 124 237.68 124 237 C124.60070312 236.73445313 125.20140625 236.46890625 125.8203125 236.1953125 C136.13342344 230.53973553 139.17878297 213.99386169 142.25 203.5625 C142.64485893 202.17587452 143.0393598 200.78914705 143.43359375 199.40234375 C144.74624712 194.8149367 146.13605975 190.25298068 147.53515625 185.69140625 C147.87500046 184.5810778 147.87500046 184.5810778 148.22171021 183.44831848 C149.14939356 180.41775961 150.07717627 177.38725629 151.01208496 174.35891724 C151.67456173 172.21176062 152.33187326 170.06308085 152.98828125 167.9140625 C153.37540283 166.6554541 153.76252441 165.3968457 154.16137695 164.10009766 C155.13056461 161.05260227 155.13056461 161.05260227 155 158 C150.9098421 158 148.01995046 159.32813928 145 162 Z M-41.99609375 166.84765625 C-44.63896703 169.68629792 -45.90007067 172.56561541 -47.2109375 176.1796875 C-48 178 -48 178 -50 179 C-50.33 177.35 -50.66 175.7 -51 174 C-52.29409289 174.61996078 -53.58519673 175.24616353 -54.875 175.875 C-55.95394531 176.39707031 -55.95394531 176.39707031 -57.0546875 176.9296875 C-59.15135019 177.96557543 -59.15135019 177.96557543 -61 180 C-61.292194 182.22358474 -61.292194 182.22358474 -61.22705078 184.81689453 C-61.22689972 185.81778107 -61.22674866 186.8186676 -61.22659302 187.84988403 C-61.21627045 188.93325043 -61.20594788 190.01661682 -61.1953125 191.1328125 C-61.1924826 192.23978485 -61.18965271 193.3467572 -61.18673706 194.48727417 C-61.17551519 198.03329137 -61.15040691 201.57905875 -61.125 205.125 C-61.1149728 207.52473594 -61.1058465 209.92447583 -61.09765625 212.32421875 C-61.07556932 218.21623151 -61.04207207 224.10809791 -61 230 C-56.52463198 228.75106009 -53.22311578 227.41288223 -50 224 C-49.28618461 220.88743154 -49.28618461 220.88743154 -49.43359375 217.3984375 C-49.42263672 216.10292969 -49.41167969 214.80742187 -49.40039062 213.47265625 C-49.41035001 212.10675113 -49.42273481 210.74086162 -49.4375 209.375 C-49.60302526 189.49757545 -49.60302526 189.49757545 -42.9296875 181.52734375 C-42.25164062 181.00269531 -41.57359375 180.47804688 -40.875 179.9375 C-40.19179687 179.38964844 -39.50859375 178.84179688 -38.8046875 178.27734375 C-37 177 -37 177 -35 176 C-35 171.38 -35 166.76 -35 162 C-37.5561004 162 -40.1861277 165.26434069 -41.99609375 166.84765625 Z " fill="#F7F7F7" transform="translate(253,115)"/>
<path d="M0 0 C3.79326786 2.02378061 7.42459873 4.27337355 11.0625 6.5625 C12.57215332 7.49642578 12.57215332 7.49642578 14.11230469 8.44921875 C17.08144369 10.28919523 20.04232411 12.14166445 23 14 C23.80614746 14.50644043 24.61229492 15.01288086 25.44287109 15.53466797 C26.88209422 16.439512 28.32130411 17.34437712 29.76049805 18.24926758 C30.74530151 18.86838013 30.74530151 18.86838013 31.75 19.5 C32.72223511 20.11234497 32.72223511 20.11234497 33.71411133 20.73706055 C37.99705555 23.41897691 42.35583354 25.86881416 46.81640625 28.23828125 C51.3374951 30.74013533 55.75909882 33.40079104 60.1875 36.0625 C61.03151367 36.56958496 61.87552734 37.07666992 62.74511719 37.59912109 C65.16751665 39.05969947 67.58788599 40.5224799 70 42 C70.64977216 42.2911223 71.29954432 42.58224461 71.96900654 42.8821888 C77.55374109 45.67299057 77.55374109 45.67299057 78.72789288 49.16448498 C78.98752818 51.93547327 78.98964655 54.60768411 78.90820312 57.38989258 C78.90937134 58.43425476 78.91053955 59.47861694 78.91174316 60.55462646 C78.90617456 64.00261982 78.84397494 67.44714324 78.78125 70.89453125 C78.76632726 73.2863323 78.7549404 75.67815782 78.74694824 78.06999207 C78.7164178 84.36216877 78.63784333 90.65286562 78.54931641 96.94445801 C78.46744664 103.36576314 78.43093412 109.78730766 78.390625 116.20898438 C78.30485307 128.80662059 78.16987206 141.40323155 78 154 C77.67 154 77.34 154 77 154 C76.67 121.33 76.34 88.66 76 55 C73.03 56.65 70.06 58.3 67 60 C66.34 60 65.68 60 65 60 C65 60.66 65 61.32 65 62 C64.26136719 62.35191406 63.52273438 62.70382813 62.76171875 63.06640625 C56.40228147 66.16127852 50.38629301 69.50673083 44.47265625 73.38671875 C37.40193705 78 37.40193705 78 35 78 C35 78.66 35 79.32 35 80 C34.46375 80.24492187 33.9275 80.48984375 33.375 80.7421875 C25.49142778 84.50244399 18.23646643 89.14532727 10.87402344 93.81494141 C8.30408563 95.44006883 5.72064747 97.04127887 3.125 98.625 C1.98417969 99.32496094 1.98417969 99.32496094 0.8203125 100.0390625 C-1 101 -1 101 -3 101 C-3 101.66 -3 102.32 -3 103 C-6.465 103.99 -6.465 103.99 -10 105 C-10 138.99 -10 172.98 -10 208 C-15.18928912 208 -16.03938035 207.70307471 -20.06640625 204.94921875 C-23.94700711 202.36453211 -27.83787399 199.85047725 -31.83984375 197.45703125 C-33.32581055 196.56745728 -33.32581055 196.56745728 -34.84179688 195.65991211 C-35.86337891 195.05026611 -36.88496094 194.44062012 -37.9375 193.8125 C-39.01708984 193.16611572 -40.09667969 192.51973145 -41.20898438 191.85375977 C-46.38730655 188.75370035 -51.56949145 185.66016948 -56.75390625 182.5703125 C-57.64279541 182.03946045 -58.53168457 181.5086084 -59.44750977 180.96166992 C-61.08609783 179.98321891 -62.72581398 179.00665323 -64.36694336 178.0324707 C-68.21703452 175.73257302 -71.98914122 173.36043288 -75.70703125 170.8515625 C-79.77208225 168.11283921 -83.96171772 165.8195665 -88.32421875 163.58984375 C-96.56371308 158.69426099 -96.56371308 158.69426099 -97.55441666 154.84699821 C-97.76853096 152.10639788 -97.78767226 149.42236126 -97.74462891 146.67358398 C-97.75193024 145.63564697 -97.75923157 144.59770996 -97.76675415 143.52832031 C-97.78295589 140.10024398 -97.75575913 136.67406131 -97.7265625 133.24609375 C-97.72552523 130.86385601 -97.72656089 128.48161654 -97.72958374 126.09938049 C-97.72940434 121.10839256 -97.70855525 116.11805108 -97.67236328 111.12719727 C-97.62696343 104.72541172 -97.62590528 98.32456976 -97.63939857 91.9226675 C-97.64607661 87.0044565 -97.63282152 82.0864612 -97.61314011 77.16829109 C-97.60543497 74.80755809 -97.60314015 72.44680111 -97.6063118 70.08605766 C-97.60705238 66.78924585 -97.58183734 63.49365074 -97.54931641 60.19702148 C-97.55427124 59.21872879 -97.55922607 58.2404361 -97.56433105 57.23249817 C-97.46102859 50.68141853 -97.46102859 50.68141853 -95.21566772 47.36268616 C-93 46 -93 46 -89 46 C-89 45.34 -89 44.68 -89 44 C-82.375 40 -82.375 40 -79 40 C-79 39.34 -79 38.68 -79 38 C-78.39414062 37.72027344 -77.78828125 37.44054687 -77.1640625 37.15234375 C-72.49112965 34.91652511 -68.19762328 32.5449426 -64 29.5 C-52.24507659 21 -52.24507659 21 -47 21 C-47 20.34 -47 19.68 -47 19 C-46.47792969 18.72027344 -45.95585937 18.44054687 -45.41796875 18.15234375 C-41.04594928 15.77108621 -36.80455576 13.26868718 -32.625 10.5625 C-17.73601974 1 -17.73601974 1 -13 1 C-12.67 0.01 -12.34 -0.98 -12 -2 C-7.45007231 -3.51664256 -4.30205281 -1.8460574 0 0 Z M-10.5625 30 C-11.17802734 30.3815625 -11.79355469 30.763125 -12.42773438 31.15625 C-13.9530539 32.10218459 -15.47668476 33.05084113 -17 34 C-16.67 38.29 -16.34 42.58 -16 47 C-17.47210938 46.85820312 -18.94421875 46.71640625 -20.4609375 46.5703125 C-34.30393477 45.08659305 -34.30393477 45.08659305 -46.5859375 50.65234375 C-47.05257812 51.09707031 -47.51921875 51.54179687 -48 52 C-45.19360385 54.80639615 -42.94077719 54.59258815 -39.0234375 55.0703125 C-38.33819 55.15626678 -37.6529425 55.24222107 -36.94692993 55.33078003 C-34.75719333 55.60357298 -32.56621956 55.86441476 -30.375 56.125 C-28.89052812 56.30780876 -27.40615151 56.49139297 -25.921875 56.67578125 C-22.28231272 57.12619207 -18.64154736 57.56589571 -15 58 C-14.01581534 61.66230255 -13.72655623 65.14672887 -13.5 68.9375 C-13.25349016 73.0533339 -12.91615093 76.9765705 -12 81 C-8.00987629 80.44010697 -5.4744948 79.24330232 -2.1875 76.9375 C-0.805625 75.968125 0.57625 74.99875 2 74 C1.505 66.575 1.505 66.575 1 59 C2.44890625 59.29777344 3.8978125 59.59554687 5.390625 59.90234375 C18.28490733 62.58717582 18.28490733 62.58717582 30.375 58.75 C33.07344477 56.87643273 33.07344477 56.87643273 35 55 C35 54.67 35 54.34 35 54 C28.0840704 52.53910701 21.14834877 51.6159986 14.125 50.875 C12.89463013 50.74375732 12.89463013 50.74375732 11.6394043 50.60986328 C7.74311428 50.21284511 3.92261693 49.88883272 0 50 C-0.06058594 49.24074219 -0.12117188 48.48148438 -0.18359375 47.69921875 C-0.26738281 46.70535156 -0.35117187 45.71148437 -0.4375 44.6875 C-0.51871094 43.70136719 -0.59992188 42.71523437 -0.68359375 41.69921875 C-0.91812559 38.90624401 -0.91812559 38.90624401 -2 36 C-2.22008052 34.27467737 -2.40503094 32.54465967 -2.5625 30.8125 C-2.64628906 29.91144531 -2.73007812 29.01039063 -2.81640625 28.08203125 C-2.87699219 27.39496094 -2.93757813 26.70789063 -3 26 C-5.51054115 26 -8.41121626 28.65799792 -10.5625 30 Z M-77 97 C-73.81570409 105.25462282 -70.16666738 113.24496574 -66.359375 121.22851562 C-65.92625 122.15986328 -65.493125 123.09121094 -65.046875 124.05078125 C-64.65338867 124.88262939 -64.25990234 125.71447754 -63.85449219 126.5715332 C-62.92977805 129.19957079 -62.83853185 131.23501205 -63 134 C-63.66 134 -64.32 134 -65 134 C-65 134.66 -65 135.32 -65 136 C-65.66 136 -66.32 136 -67 136 C-68.70484466 137.68522729 -68.70484466 137.68522729 -70.4375 139.8125 C-72.54463676 142.31102718 -74.65241398 144.7242056 -77 147 C-76.28740777 150.23205279 -76.28740777 150.23205279 -73.27734375 151.60546875 C-72.17519531 152.12753906 -71.07304687 152.64960938 -69.9375 153.1875 C-68.83277344 153.71730469 -67.72804688 154.24710938 -66.58984375 154.79296875 C-65.73519531 155.19128906 -64.88054687 155.58960938 -64 156 C-64 155.34 -64 154.68 -64 154 C-63.34 154 -62.68 154 -62 154 C-60.64547616 152.24761272 -59.50058288 150.40217483 -58.31640625 148.53125 C-57.88199219 148.0259375 -57.44757813 147.520625 -57 147 C-56.01 147 -55.02 147 -54 147 C-53.77973145 147.60473145 -53.55946289 148.20946289 -53.33251953 148.83251953 C-48.96058007 162.36011911 -48.96058007 162.36011911 -39.625 172.3125 C-36.76102876 173.60810604 -35.16682805 174 -32 174 C-33.46475761 169.14752094 -35.49135575 164.85242219 -37.8125 160.375 C-41.21816411 153.70014647 -44.25190317 146.9759381 -47 140 C-42.53648711 134.77674023 -37.9255107 129.79077028 -33 125 C-34.24727575 121.25817274 -35.50436897 120.71693909 -38.8125 118.6875 C-39.68519531 118.13449219 -40.55789063 117.58148438 -41.45703125 117.01171875 C-43.91212684 115.73147373 -43.91212684 115.73147373 -46.1640625 116.640625 C-48.91266501 118.67576047 -50.82377767 121.37737309 -53 124 C-53.99 124.33 -54.98 124.66 -56 125 C-56.391875 123.7625 -56.78375 122.525 -57.1875 121.25 C-57.46980469 120.43273437 -57.75210938 119.61546875 -58.04296875 118.7734375 C-58.70568744 116.8529058 -59.33094518 114.91919168 -59.92578125 112.9765625 C-62.5399282 105.4288073 -65.63510887 102.0531181 -72.57421875 98.109375 C-74.85856712 96.86136727 -74.85856712 96.86136727 -77 97 Z " fill="#F7F7F6" transform="translate(351,176)"/>
<path d="M0 0 C0.33 0 0.66 0 1 0 C1.18701135 15.02062201 1.32801786 30.0411537 1.41449738 45.06269264 C1.45572197 52.0377968 1.51190708 59.012177 1.60351562 65.98681641 C1.69187355 72.71718679 1.7382672 79.44664963 1.75901794 86.17762375 C1.77380621 88.74616718 1.80268487 91.31466917 1.84584045 93.88289261 C1.90387826 97.4796382 1.91191438 101.07327207 1.90820312 104.67041016 C1.93696533 105.73352417 1.96572754 106.79663818 1.99536133 107.89196777 C1.91632523 114.96591578 1.91632523 114.96591578 -0.74702454 117.97153854 C-2.76862922 119.51135883 -4.77081961 120.78561878 -7 122 C-7.89203125 122.55945313 -8.7840625 123.11890625 -9.703125 123.6953125 C-10.54359375 124.16710937 -11.3840625 124.63890625 -12.25 125.125 C-17.81455365 128.30474494 -23.32091641 131.57075083 -28.8125 134.875 C-30.56117467 135.92712196 -32.30987239 136.97920563 -34.05859375 138.03125 C-34.90276855 138.53914062 -35.74694336 139.04703125 -36.61669922 139.5703125 C-38.68984828 140.81394709 -40.76699922 142.0502361 -42.84765625 143.28125 C-52.33902117 148.90740027 -61.64038606 154.81871271 -70.93359375 160.765625 C-71.79839355 161.31154297 -72.66319336 161.85746094 -73.55419922 162.41992188 C-75.10183433 163.41975163 -76.62821672 164.45399321 -78.12158203 165.53320312 C-82.31552728 168.48046784 -85.57232542 169.79389248 -90.75439453 169.47119141 C-94.85788691 168.61016289 -98.00092822 166.50960238 -101.4375 164.1875 C-103.01528802 163.172653 -104.59342312 162.15834541 -106.171875 161.14453125 C-106.97044922 160.62197754 -107.76902344 160.09942383 -108.59179688 159.56103516 C-112.40899449 157.0866676 -116.29846055 154.73416613 -120.1875 152.375 C-121.68761991 151.45852959 -123.18762149 150.54186544 -124.6875 149.625 C-132.33017664 144.96582814 -140.01415505 140.37522293 -147.703125 135.79296875 C-151.47666774 133.54166822 -155.24138148 131.27612443 -159 129 C-159.72026367 128.56445801 -160.44052734 128.12891602 -161.18261719 127.68017578 C-163.39732563 126.33604699 -165.60567787 124.98203018 -167.8125 123.625 C-168.50077881 123.20806885 -169.18905762 122.7911377 -169.89819336 122.36157227 C-173.00657287 120.43673935 -174.94383157 119.08425264 -177 116 C-180.55144663 117.28973588 -183.34632532 118.81490458 -186.375 121.0625 C-194.28311796 126.71616188 -202.7309087 131.49761652 -211.109375 136.41015625 C-212.51046513 137.23168818 -213.91150624 138.05330373 -215.3125 138.875 C-216.37235107 139.49640869 -216.37235107 139.49640869 -217.45361328 140.13037109 C-224.91818888 144.51882053 -232.29913557 149.0411257 -239.67675781 153.57373047 C-243.71844451 156.05497613 -247.76569551 158.52711355 -251.8125 161 C-252.55943115 161.45689209 -253.3063623 161.91378418 -254.07592773 162.38452148 C-255.45464414 163.22748282 -256.83622753 164.06578043 -258.22119141 164.8984375 C-259.69102841 165.80866322 -261.10977143 166.80083039 -262.51171875 167.8125 C-266.08089332 169.51584234 -269.17866234 169.74434953 -273 169 C-276.28368692 167.60154262 -279.19721725 165.75013149 -282.1875 163.8125 C-283.05479736 163.27149658 -283.92209473 162.73049316 -284.81567383 162.1730957 C-286.64218865 161.03199604 -288.46399513 159.88332865 -290.28125 158.72753906 C-293.71401871 156.54630061 -297.17123662 154.40611681 -300.63085938 152.26782227 C-302.349659 151.20539007 -304.0670872 150.14073628 -305.78320312 149.07397461 C-312.71063229 144.77236733 -319.69048561 140.56228574 -326.6875 136.375 C-327.73518555 135.747146 -328.78287109 135.11929199 -329.86230469 134.47241211 C-335.84145088 130.88925861 -335.84145088 130.88925861 -341.82617188 127.31542969 C-344.36694926 125.79963548 -346.90276672 124.2758726 -349.4375 122.75 C-350.18281982 122.30833496 -350.92813965 121.86666992 -351.69604492 121.41162109 C-354.88921005 119.48058709 -356.90073597 118.14889605 -359 115 C-359.25760279 112.30547479 -359.08900053 109.71451625 -359 107 C-355.35134796 108.36496335 -352.09700426 110.01092318 -348.75 112 C-347.70199219 112.62003906 -346.65398437 113.24007812 -345.57421875 113.87890625 C-344.71836182 114.38768311 -344.71836182 114.38768311 -343.84521484 114.90673828 C-341.86596261 116.07941512 -339.88089054 117.24174833 -337.89453125 118.40234375 C-330.46906676 122.74442424 -323.08568062 127.14086289 -315.7734375 131.671875 C-310.70039384 134.81083857 -305.59760207 137.90115376 -300.5 141 C-277.68232044 154.87845304 -277.68232044 154.87845304 -273 158 C-266.73775922 158.77226657 -263.27293645 156.92417778 -258.1875 153.6875 C-257.45249268 153.23745605 -256.71748535 152.78741211 -255.96020508 152.32373047 C-254.40951094 151.3723138 -252.86292936 150.41416502 -251.3203125 149.44970703 C-248.36025433 147.60029358 -245.37912003 145.78662609 -242.39770508 143.97192383 C-240.15158553 142.60311332 -237.90964565 141.22763425 -235.66796875 139.8515625 C-229.9700603 136.36166894 -224.23650315 132.93166539 -218.49902344 129.50732422 C-214.25723857 126.97138434 -210.03444587 124.41024502 -205.83984375 121.796875 C-205.01548828 121.28511719 -204.19113281 120.77335937 -203.34179688 120.24609375 C-201.77315142 119.26999106 -200.20786749 118.28845923 -198.64648438 117.30078125 C-197.59750977 116.64916016 -197.59750977 116.64916016 -196.52734375 115.984375 C-195.91624756 115.59991211 -195.30515137 115.21544922 -194.67553711 114.81933594 C-193 114 -193 114 -190 114 C-190 113.34 -190 112.68 -190 112 C-188 110.66666667 -186 109.33333333 -184 108 C-182.16699091 105.89424357 -182.16699091 105.89424357 -181 104 C-178.75 104.1875 -178.75 104.1875 -176 105 C-175.39027344 105.76957031 -174.78054687 106.53914063 -174.15234375 107.33203125 C-171.89407556 110.13130017 -169.86528669 111.63220555 -166.8125 113.5 C-165.93207031 114.0465625 -165.05164063 114.593125 -164.14453125 115.15625 C-161.77221251 116.54722447 -159.39175652 117.88722389 -156.98046875 119.20703125 C-151.32917078 122.32941905 -145.83257143 125.70369763 -140.32550049 129.07128906 C-131.14448845 134.68506245 -121.94328718 140.25582413 -112.63378906 145.65478516 C-106.92928319 148.98506931 -101.42935838 152.59324062 -95.953125 156.28515625 C-92.82318408 158.31513664 -92.82318408 158.31513664 -88 159 C-88 125.01 -88 91.02 -88 56 C-84 54 -84 54 -81 54 C-81 53.34 -81 52.68 -81 52 C-79.11328125 50.73046875 -79.11328125 50.73046875 -76.3125 49.1875 C-72.04107138 46.78098938 -67.84995859 44.30004828 -63.703125 41.68359375 C-62.77459717 41.09876221 -61.84606934 40.51393066 -60.8894043 39.91137695 C-59.02279273 38.73182804 -57.15958954 37.54686599 -55.30004883 36.35620117 C-54.42888428 35.80810791 -53.55771973 35.26001465 -52.66015625 34.6953125 C-51.88293213 34.20047363 -51.10570801 33.70563477 -50.30493164 33.19580078 C-47.85750577 31.92607386 -45.71526223 31.40757446 -43 31 C-43 30.34 -43 29.68 -43 29 C-41.71029297 28.27296875 -41.71029297 28.27296875 -40.39453125 27.53125 C-39.2002114 26.85471264 -38.00622654 26.1775837 -36.8125 25.5 C-36.18625732 25.14486328 -35.56001465 24.78972656 -34.91479492 24.42382812 C-29.38569116 21.26632213 -24.00390994 17.90509638 -18.64453125 14.46875 C-16 13 -16 13 -13 13 C-13 12.34 -13 11.68 -13 11 C-12.14535156 10.62488281 -11.29070312 10.24976563 -10.41015625 9.86328125 C-9.30542969 9.35152344 -8.20070313 8.83976563 -7.0625 8.3125 C-5.96035156 7.81363281 -4.85820312 7.31476563 -3.72265625 6.80078125 C-0.77236029 5.25577708 -0.77236029 5.25577708 -0.12109375 2.29296875 C-0.08113281 1.53628906 -0.04117187 0.77960938 0 0 Z M-31 52 C-31.95633419 53.83724694 -31.95633419 53.83724694 -32.52734375 55.96484375 C-32.7701709 56.76510986 -33.01299805 57.56537598 -33.26318359 58.38989258 C-33.62790771 59.68189575 -33.62790771 59.68189575 -34 61 C-34.25217285 61.88518311 -34.5043457 62.77036621 -34.76416016 63.68237305 C-35.54819226 66.49202832 -36.30886195 69.30704904 -37.0625 72.125 C-37.8153696 74.92028914 -38.56910388 77.71529623 -39.32861328 80.50878906 C-39.74944868 82.07031792 -40.1607976 83.63446822 -40.55810547 85.20214844 C-40.98035715 86.81782756 -41.4816065 88.41255435 -42 90 C-42.99 90.495 -42.99 90.495 -44 91 C-44.14695312 90.45214844 -44.29390625 89.90429688 -44.4453125 89.33984375 C-46.71447938 81.31951252 -49.82944737 73.6955161 -53 66 C-54.81853256 66.92574392 -56.62968883 67.86598995 -58.4375 68.8125 C-59.44683594 69.33457031 -60.45617187 69.85664063 -61.49609375 70.39453125 C-64.28691218 71.81418484 -64.28691218 71.81418484 -65 75 C-64.40464277 77.06745545 -64.40464277 77.06745545 -63.33984375 79.24609375 C-62.96069824 80.07778076 -62.58155273 80.90946777 -62.19091797 81.76635742 C-61.77729004 82.64783447 -61.36366211 83.52931152 -60.9375 84.4375 C-60.5264502 85.33895752 -60.11540039 86.24041504 -59.69189453 87.16918945 C-57.90368096 91.06087565 -56.09048547 94.91758064 -54.02734375 98.671875 C-51.10727956 104.00116473 -48.99776107 108.01282632 -50.25390625 114.16015625 C-51.89483491 118.20663477 -55.01945558 119.56420248 -58.8125 121.25 C-59.534375 121.4975 -60.25625 121.745 -61 122 C-61 125.3 -61 128.6 -61 132 C-57.65626525 131.44271087 -54.96687001 130.64826111 -52 129 C-52 128.34 -52 127.68 -52 127 C-51.39929688 126.73445313 -50.79859375 126.46890625 -50.1796875 126.1953125 C-39.86657656 120.53973553 -36.82121703 103.99386169 -33.75 93.5625 C-33.35514107 92.17587452 -32.9606402 90.78914705 -32.56640625 89.40234375 C-31.25375288 84.8149367 -29.86394025 80.25298068 -28.46484375 75.69140625 C-28.12499954 74.5810778 -28.12499954 74.5810778 -27.77828979 73.44831848 C-26.85060644 70.41775961 -25.92282373 67.38725629 -24.98791504 64.35891724 C-24.32543827 62.21176062 -23.66812674 60.06308085 -23.01171875 57.9140625 C-22.62459717 56.6554541 -22.23747559 55.3968457 -21.83862305 54.10009766 C-20.86943539 51.05260227 -20.86943539 51.05260227 -21 48 C-25.0901579 48 -27.98004954 49.32813928 -31 52 Z " fill="#D4D3D3" transform="translate(429,225)"/>
<path d="M0 0 C0.66 0 1.32 0 2 0 C2.1389695 13.21265889 2.24560619 26.42514417 2.31087303 39.63838482 C2.34219673 45.7737527 2.38469021 51.9086209 2.45263672 58.04370117 C2.51778966 63.96353382 2.55369821 69.8828856 2.56926346 75.80304909 C2.58035692 78.06256494 2.60201999 80.32205423 2.63438034 82.58136559 C2.67788804 85.74452116 2.68393626 88.90568555 2.68115234 92.0690918 C2.702724 93.00489075 2.72429565 93.9406897 2.746521 94.90484619 C2.68748633 101.09689104 2.68748633 101.09689104 0.68877029 103.72248268 C-1.43919204 105.57471241 -3.09709873 107 -6 107 C-6 107.66 -6 108.32 -6 109 C-6.89525391 109.47566406 -6.89525391 109.47566406 -7.80859375 109.9609375 C-23.93226714 118.6337009 -39.6148471 128.19117942 -55.1875 137.8125 C-57.45753006 139.20965958 -59.72846327 140.60529561 -62 142 C-62.8132373 142.50063965 -63.62647461 143.0012793 -64.46435547 143.51708984 C-67.18030737 145.18514314 -69.90209336 146.84332832 -72.625 148.5 C-73.94213989 149.31174683 -73.94213989 149.31174683 -75.28588867 150.13989258 C-76.11193604 150.64029053 -76.9379834 151.14068848 -77.7890625 151.65625 C-78.89822021 152.33397461 -78.89822021 152.33397461 -80.02978516 153.02539062 C-82 154 -82 154 -85 154 C-85.20854465 140.80478257 -85.36845253 127.60995718 -85.46630955 114.41342735 C-85.51327728 108.28560552 -85.57697844 102.15891115 -85.67895508 96.03173828 C-85.77675797 90.11832231 -85.83056076 84.20599048 -85.85389519 78.29182816 C-85.87052305 76.03583326 -85.9029952 73.77989765 -85.95157051 71.52436447 C-86.01694323 68.36308478 -86.02590172 65.20628063 -86.02172852 62.04443359 C-86.054086 61.11222992 -86.08644348 60.18002625 -86.11978149 59.21957397 C-86.08136854 56.52926001 -85.94837522 54.52151568 -85 52 C-82.28986134 49.38477547 -79.3586685 47.66865319 -76 46 C-75.05125 45.525625 -74.1025 45.05125 -73.125 44.5625 C-72.09375 44.046875 -71.0625 43.53125 -70 43 C-68.15817527 41.84678542 -66.32569582 40.67858261 -64.5 39.5 C-54.39957717 33 -54.39957717 33 -51 33 C-51 32.34 -51 31.68 -51 31 C-49.2335343 29.9923048 -47.46166177 28.99408286 -45.6875 28 C-44.20830078 27.1646875 -44.20830078 27.1646875 -42.69921875 26.3125 C-40 25 -40 25 -37 25 C-37 24.34 -37 23.68 -37 23 C-34.92111288 21.52313012 -32.86716626 20.18604262 -30.6875 18.875 C-29.79514648 18.31619141 -29.79514648 18.31619141 -28.88476562 17.74609375 C-24.38338484 15 -24.38338484 15 -21 15 C-21 14.34 -21 13.68 -21 13 C-20.40832031 12.67386719 -19.81664062 12.34773437 -19.20703125 12.01171875 C-15.78864136 10.1212878 -12.38755883 8.23913204 -9.0625 6.1875 C-7 5 -7 5 -5 5 C-5 4.34 -5 3.68 -5 3 C-2.525 2.505 -2.525 2.505 0 2 C0 1.34 0 0.68 0 0 Z M-33.99609375 51.84765625 C-36.63896703 54.68629792 -37.90007067 57.56561541 -39.2109375 61.1796875 C-40 63 -40 63 -42 64 C-42.33 62.35 -42.66 60.7 -43 59 C-44.29409289 59.61996078 -45.58519673 60.24616353 -46.875 60.875 C-47.95394531 61.39707031 -47.95394531 61.39707031 -49.0546875 61.9296875 C-51.15135019 62.96557543 -51.15135019 62.96557543 -53 65 C-53.292194 67.22358474 -53.292194 67.22358474 -53.22705078 69.81689453 C-53.22689972 70.81778107 -53.22674866 71.8186676 -53.22659302 72.84988403 C-53.21627045 73.93325043 -53.20594788 75.01661682 -53.1953125 76.1328125 C-53.1924826 77.23978485 -53.18965271 78.3467572 -53.18673706 79.48727417 C-53.17551519 83.03329137 -53.15040691 86.57905875 -53.125 90.125 C-53.1149728 92.52473594 -53.1058465 94.92447583 -53.09765625 97.32421875 C-53.07556932 103.21623151 -53.04207207 109.10809791 -53 115 C-48.52463198 113.75106009 -45.22311578 112.41288223 -42 109 C-41.28618461 105.88743154 -41.28618461 105.88743154 -41.43359375 102.3984375 C-41.42263672 101.10292969 -41.41167969 99.80742187 -41.40039062 98.47265625 C-41.41035001 97.10675113 -41.42273481 95.74086162 -41.4375 94.375 C-41.60302526 74.49757545 -41.60302526 74.49757545 -34.9296875 66.52734375 C-34.25164062 66.00269531 -33.57359375 65.47804688 -32.875 64.9375 C-32.19179687 64.38964844 -31.50859375 63.84179688 -30.8046875 63.27734375 C-29 62 -29 62 -27 61 C-27 56.38 -27 51.76 -27 47 C-29.5561004 47 -32.1861277 50.26434069 -33.99609375 51.84765625 Z " fill="#D6D6D5" transform="translate(245,230)"/>
<path d="M0 0 C2.75 0.1875 2.75 0.1875 6 1 C7.33909702 2.66203933 8.67174411 4.32928403 10 6 C12.46557162 7.89044569 12.46557162 7.89044569 15.1875 9.5 C16.50814453 10.31984375 16.50814453 10.31984375 17.85546875 11.15625 C20.22778749 12.54722447 22.60824348 13.88722389 25.01953125 15.20703125 C30.67082922 18.32941905 36.16742857 21.70369763 41.67449951 25.07128906 C50.85645371 30.68563854 60.05000575 36.27400735 69.37280273 41.65258789 C72.61153575 43.53545775 75.76301494 45.48563183 78.85546875 47.6015625 C79.4808252 48.02501953 80.10618164 48.44847656 80.75048828 48.88476562 C82.42978854 50.03416542 84.09262852 51.20751443 85.75390625 52.3828125 C89.73295247 54.36515322 92.64006475 54.78299077 97 54 C100.16759949 52.63447106 100.16759949 52.63447106 103.0625 50.5625 C104.18791424 49.82286605 105.3142547 49.08463995 106.44140625 48.34765625 C107.02164551 47.96109863 107.60188477 47.57454102 108.19970703 47.17626953 C111.24223233 45.1883543 114.37366226 43.35210914 117.5 41.5 C123.08245334 38.16394566 128.63010303 34.77539937 134.1640625 31.359375 C141.2124178 27.0165663 148.28942099 22.72042404 155.3671875 18.42578125 C158.77829085 16.35561416 162.18064276 14.27302811 165.5703125 12.16796875 C166.24400879 11.75345459 166.91770508 11.33894043 167.61181641 10.91186523 C169.35886606 9.83684464 171.10150821 8.75467013 172.84375 7.671875 C176.25235242 5.86632817 179.27116109 4.92279347 183 4 C183.4227887 7.06521809 183.66609816 9.04016058 183 12 C180.77014135 14.65917052 177.9695666 16.25073967 175 18 C174.175 18.49628906 173.35 18.99257813 172.5 19.50390625 C170.5614736 20.64664553 168.6139421 21.77417594 166.66015625 22.890625 C162.12886901 25.48431693 157.66102111 28.18331223 153.1875 30.875 C151.43882533 31.92712196 149.69012761 32.97920563 147.94140625 34.03125 C147.09723145 34.53914063 146.25305664 35.04703125 145.38330078 35.5703125 C143.31015172 36.81394709 141.23300078 38.0502361 139.15234375 39.28125 C129.66097883 44.90740027 120.35961394 50.81871271 111.06640625 56.765625 C109.76920654 57.58450195 109.76920654 57.58450195 108.44580078 58.41992188 C106.89816567 59.41975163 105.37178328 60.45399321 103.87841797 61.53320312 C99.68447272 64.48046784 96.42767458 65.79389248 91.24560547 65.47119141 C87.14211309 64.61016289 83.99907178 62.50960238 80.5625 60.1875 C78.98471198 59.172653 77.40657688 58.15834541 75.828125 57.14453125 C75.02955078 56.62197754 74.23097656 56.09942383 73.40820312 55.56103516 C69.59100551 53.0866676 65.70153945 50.73416613 61.8125 48.375 C60.31238009 47.45852959 58.81237851 46.54186544 57.3125 45.625 C49.66982336 40.96582814 41.98584495 36.37522293 34.296875 31.79296875 C30.52333226 29.54166822 26.75861852 27.27612443 23 25 C22.27973633 24.56445801 21.55947266 24.12891602 20.81738281 23.68017578 C18.60267437 22.33604699 16.39432213 20.98203018 14.1875 19.625 C13.49922119 19.20806885 12.81094238 18.7911377 12.10180664 18.36157227 C8.99342713 16.43673935 7.05616843 15.08425264 5 12 C1.44855337 13.28973588 -1.34632532 14.81490458 -4.375 17.0625 C-12.28311796 22.71616188 -20.7309087 27.49761652 -29.109375 32.41015625 C-30.51046513 33.23168818 -31.91150624 34.05330373 -33.3125 34.875 C-34.01906738 35.28927246 -34.72563477 35.70354492 -35.45361328 36.13037109 C-42.91818888 40.51882053 -50.29913557 45.0411257 -57.67675781 49.57373047 C-61.71844451 52.05497613 -65.76569551 54.52711355 -69.8125 57 C-70.93289673 57.68533813 -70.93289673 57.68533813 -72.07592773 58.38452148 C-73.45464414 59.22748282 -74.83622753 60.06578043 -76.22119141 60.8984375 C-77.69102841 61.80866322 -79.10977143 62.80083039 -80.51171875 63.8125 C-84.08089332 65.51584234 -87.17866234 65.74434953 -91 65 C-94.28368692 63.60154262 -97.19721725 61.75013149 -100.1875 59.8125 C-101.05479736 59.27149658 -101.92209473 58.73049316 -102.81567383 58.1730957 C-104.64218865 57.03199604 -106.46399513 55.88332865 -108.28125 54.72753906 C-111.71401871 52.54630061 -115.17123662 50.40611681 -118.63085938 48.26782227 C-120.349659 47.20539007 -122.0670872 46.14073628 -123.78320312 45.07397461 C-130.71063229 40.77236733 -137.69048561 36.56228574 -144.6875 32.375 C-145.73518555 31.747146 -146.78287109 31.11929199 -147.86230469 30.47241211 C-153.84145088 26.88925861 -153.84145088 26.88925861 -159.82617188 23.31542969 C-162.36694926 21.79963548 -164.90276672 20.2758726 -167.4375 18.75 C-168.18281982 18.30833496 -168.92813965 17.86666992 -169.69604492 17.41162109 C-172.88921005 15.48058709 -174.90073597 14.14889605 -177 11 C-177.25760279 8.30547479 -177.08900053 5.71451625 -177 3 C-173.35134796 4.36496335 -170.09700426 6.01092318 -166.75 8 C-165.70199219 8.62003906 -164.65398437 9.24007813 -163.57421875 9.87890625 C-163.00364746 10.21809082 -162.43307617 10.55727539 -161.84521484 10.90673828 C-159.86596261 12.07941512 -157.88089054 13.24174833 -155.89453125 14.40234375 C-148.46906676 18.74442424 -141.08568062 23.14086289 -133.7734375 27.671875 C-128.70039384 30.81083857 -123.59760207 33.90115376 -118.5 37 C-95.68232044 50.87845304 -95.68232044 50.87845304 -91 54 C-84.73775922 54.77226657 -81.27293645 52.92417778 -76.1875 49.6875 C-75.45249268 49.23745605 -74.71748535 48.78741211 -73.96020508 48.32373047 C-72.40951094 47.3723138 -70.86292936 46.41416502 -69.3203125 45.44970703 C-66.36025433 43.60029358 -63.37912003 41.78662609 -60.39770508 39.97192383 C-58.15158553 38.60311332 -55.90964565 37.22763425 -53.66796875 35.8515625 C-47.9700603 32.36166894 -42.23650315 28.93166539 -36.49902344 25.50732422 C-32.25723857 22.97138434 -28.03444587 20.41024502 -23.83984375 17.796875 C-23.01548828 17.28511719 -22.19113281 16.77335937 -21.34179688 16.24609375 C-19.77315142 15.26999106 -18.20786749 14.28845923 -16.64648438 13.30078125 C-15.59750977 12.64916016 -15.59750977 12.64916016 -14.52734375 11.984375 C-13.91624756 11.59991211 -13.30515137 11.21544922 -12.67553711 10.81933594 C-11 10 -11 10 -8 10 C-8 9.34 -8 8.68 -8 8 C-7.05125 7.38125 -6.1025 6.7625 -5.125 6.125 C-2.17758128 4.12075527 -1.16146167 3.25209269 0 0 Z " fill="#201E1E" transform="translate(247,329)"/>
<path d="M0 0 C5.75 2.625 5.75 2.625 8 6 C8.07905064 8.33199388 8.08798769 10.66832622 8 13 C8.99 13.495 8.99 13.495 10 14 C8.43746865 17.1250627 5.73727144 17.71237785 2.625 19.1875 C-3.03415056 21.92477111 -8.32056556 24.97375532 -13.5859375 28.421875 C-22.11881188 34 -22.11881188 34 -25 34 C-25 34.66 -25 35.32 -25 36 C-26.485 36.76183594 -26.485 36.76183594 -28 37.5390625 C-36.53049356 41.87678271 -36.53049356 41.87678271 -44.375 47.3125 C-48.20651963 50.40978569 -52.27656932 51.75353913 -57 53 C-57 53.66 -57 54.32 -57 55 C-58.28913487 55.67154933 -59.58140204 56.33708859 -60.875 57 C-61.59429687 57.37125 -62.31359375 57.7425 -63.0546875 58.125 C-65 59 -65 59 -67 59 C-67 59.66 -67 60.32 -67 61 C-67.78375 61.28875 -68.5675 61.5775 -69.375 61.875 C-72.09671632 62.84912254 -72.09671632 62.84912254 -74 65 C-74.3131468 66.9718232 -74.3131468 66.9718232 -74.2784729 69.26467896 C-74.28963638 70.15932861 -74.30079987 71.05397827 -74.31230164 71.97573853 C-74.31446182 72.95972626 -74.31662201 73.94371399 -74.31884766 74.95751953 C-74.32889328 75.99169006 -74.3389389 77.0258606 -74.34928894 78.09136963 C-74.38026779 81.52184474 -74.39719689 84.95224131 -74.4140625 88.3828125 C-74.43276232 90.75650719 -74.45233482 93.13019516 -74.4727478 95.50387573 C-74.52420028 101.76084435 -74.5637557 108.01783455 -74.60089111 114.27490234 C-74.64084871 120.65597937 -74.69197855 127.03696561 -74.7421875 133.41796875 C-74.83910201 145.94524769 -74.92383609 158.47257861 -75 171 C-75.33 170.34 -75.66 169.68 -76 169 C-77.65 169 -79.3 169 -81 169 C-80.34 168.67 -79.68 168.34 -79 168 C-79.00829614 167.4540814 -79.01659227 166.9081628 -79.02513981 166.34570122 C-79.22407234 153.04999387 -79.37233765 139.75454787 -79.46630955 126.45767021 C-79.51328257 120.02720571 -79.57699447 113.59781511 -79.67895508 107.16796875 C-79.77673746 100.9627846 -79.83055677 94.7586333 -79.85389519 88.55273819 C-79.87052659 86.18510803 -79.90300536 83.81753453 -79.95157051 81.45034409 C-80.01691375 78.13345958 -80.02590262 74.82084243 -80.02172852 71.50341797 C-80.054086 70.5244606 -80.08644348 69.54550323 -80.11978149 68.53688049 C-80.0309856 62.01596606 -80.0309856 62.01596606 -77.08808708 59.11594009 C-74.78449102 57.55814518 -72.4762499 56.26165555 -70 55 C-68.47389619 54.09213494 -66.95236327 53.17649936 -65.4375 52.25 C-64.2 51.51716797 -64.2 51.51716797 -62.9375 50.76953125 C-59.2391672 48.54167918 -55.59080264 46.23818117 -51.9375 43.9375 C-47.0485674 40.86487685 -42.14735321 37.88447944 -37.06640625 35.13671875 C-33.83629379 33.35985159 -30.69254028 31.44384017 -27.5390625 29.53515625 C-25.85094902 28.51449687 -24.15823082 27.50141364 -22.4609375 26.49609375 C-17.65225628 23.6451264 -12.99000446 20.66320968 -8.37890625 17.50390625 C-4.79948162 15.2410516 -1.00395009 13.41855942 2.8125 11.58984375 C5.24742052 10.15662279 5.24742052 10.15662279 5.8125 7.31640625 C5.874375 6.55199219 5.93625 5.78757813 6 5 C5.01 5 4.02 5 3 5 C3 4.34 3 3.68 3 3 C2.01 2.67 1.02 2.34 0 2 C0 1.34 0 0.68 0 0 Z " fill="#D8D8D8" transform="translate(329,161)"/>
<path d="M0 0 C1.98 0.99 1.98 0.99 4 2 C3.67 2.33 3.34 2.66 3 3 C2.87736612 4.56448383 2.82220478 6.13432772 2.79467773 7.70336914 C2.77473251 8.70433121 2.75478729 9.70529327 2.73423767 10.73658752 C2.71752518 11.8251152 2.70081268 12.91364288 2.68359375 14.03515625 C2.66281265 15.14354355 2.64203156 16.25193085 2.62062073 17.39390564 C2.55500377 20.95003808 2.49618404 24.50624703 2.4375 28.0625 C2.39432632 30.46680493 2.35071242 32.87110199 2.30664062 35.27539062 C2.19931008 41.18351185 2.09756669 47.09170991 2 53 C2.66 53.33 3.32 53.66 4 54 C2.02 54.495 2.02 54.495 0 55 C0 36.85 0 18.7 0 0 Z " fill="#88807E" transform="translate(190,292)"/>
<path d="M0 0 C0.33 0.66 0.66 1.32 1 2 C0 4 0 4 -1 5 C-0.67 5.66 -0.34 6.32 0 7 C2.02463255 7.65213292 2.02463255 7.65213292 4 8 C2.90241493 8.84198307 1.79664683 9.67330671 0.6875 10.5 C0.07261719 10.9640625 -0.54226562 11.428125 -1.17578125 11.90625 C-3 13 -3 13 -6 13 C-6 12.34 -6 11.68 -6 11 C-6.99 10.67 -7.98 10.34 -9 10 C-9.99 9.01 -10.98 8.02 -12 7 C-8.04 4.69 -4.08 2.38 0 0 Z " fill="#252324" transform="translate(177,375)"/>
<path d="M0 0 C4.30764815 1.56641751 8.06171464 3.68336156 12 6 C10.9375 7.5625 10.9375 7.5625 9 9 C6.6568787 8.74438677 4.32156597 8.40729228 2 8 C-0.32158065 8.34659295 -0.32158065 8.34659295 -2 9 C-3 6 -3 6 -1.5625 2.8125 C-1.046875 1.884375 -0.53125 0.95625 0 0 Z " fill="#242223" transform="translate(82,339)"/>
<path d="M0 0 C2.13143302 1.06571651 3.32957529 2.32957529 5 4 C6.27874696 4.1066974 6.27874696 4.1066974 7.875 2.4375 C8.57625 1.963125 9.2775 1.48875 10 1 C10.99 1.33 11.98 1.66 13 2 C12.67 4.31 12.34 6.62 12 9 C10.359375 9.71484375 10.359375 9.71484375 8 10 C5.203125 8.56640625 5.203125 8.56640625 2.25 6.5625 C1.26515625 5.90378906 0.2803125 5.24507813 -0.734375 4.56640625 C-1.48203125 4.04949219 -2.2296875 3.53257812 -3 3 C-2.01 2.01 -1.02 1.02 0 0 Z " fill="#191516" transform="translate(316,377)"/>
<path d="M0 0 C0.66 0.66 1.32 1.32 2 2 C1.875 4 1.875 4 1 6 C-0.32407669 6.68486725 -1.65909241 7.34870203 -3 8 C-4.35386936 9.65002828 -5.68678142 11.3174387 -7 13 C-10.4137931 16 -10.4137931 16 -14 16 C-14 15.34 -14 14.68 -14 14 C-13.34 14 -12.68 14 -12 14 C-12 13.34 -12 12.68 -12 12 C-11.34 12 -10.68 12 -10 12 C-9.75507813 11.42765625 -9.51015625 10.8553125 -9.2578125 10.265625 C-7.78889901 7.61975598 -6.04651756 5.85146861 -3.875 3.75 C-3.15054688 3.04359375 -2.42609375 2.3371875 -1.6796875 1.609375 C-1.12539062 1.07828125 -0.57109375 0.5471875 0 0 Z " fill="#C2BEBF" transform="translate(139,290)"/>
<path d="M0 0 C1.5625 1.8125 1.5625 1.8125 3 4 C2 7 2 7 0.4375 8.75 C-1.31113522 11.02917401 -1.31113522 11.02917401 -0.9375 14.375 C-1.01375651 18.79787758 -2.48469554 20.4628531 -5 24 C-5 25.32 -5 26.64 -5 28 C-5.99 28.33 -6.98 28.66 -8 29 C-5.91850484 19.11712869 -3.11681433 9.59683148 0 0 Z " fill="#9E9999" transform="translate(404,286)"/>
<path d="M0 0 C0.66 0.33 1.32 0.66 2 1 C1.01 2.485 1.01 2.485 0 4 C0.33 4.99 0.66 5.98 1 7 C-0.75 8.125 -0.75 8.125 -3 9 C-5.25 8.125 -5.25 8.125 -7 7 C-7.66 7.66 -8.32 8.32 -9 9 C-11.125 8.625 -11.125 8.625 -13 8 C-10.880788 6.63594382 -8.75551882 5.28368225 -6.625 3.9375 C-6.02171875 3.54755859 -5.4184375 3.15761719 -4.796875 2.75585938 C-3.23507443 1.77539568 -1.62007786 0.88083925 0 0 Z " fill="#2A292A" transform="translate(231,342)"/>
<path d="M0 0 C0 0.66 0 1.32 0 2 C-0.99 2 -1.98 2 -3 2 C-3 2.66 -3 3.32 -3 4 C-3.969375 4.680625 -4.93875 5.36125 -5.9375 6.0625 C-8.11402069 7.76274675 -8.90021188 8.62595143 -9.62109375 11.328125 C-9.8494727 13.56272518 -9.99021497 15.75433636 -10 18 C-11.32 17.34 -12.64 16.68 -14 16 C-13.34 15.34 -12.68 14.68 -12 14 C-11.979375 12.7625 -11.95875 11.525 -11.9375 10.25 C-11.66063175 7.21552403 -11.27316071 6.25495 -9.0078125 4.140625 C-2.83630952 0 -2.83630952 0 0 0 Z " fill="#A9A6A7" transform="translate(175,159)"/>
<path d="M0 0 C0.33 0 0.66 0 1 0 C1.75741925 9.02140429 2.13534286 17.94706663 2 27 C1.01 27.33 0.02 27.66 -1 28 C-1.66 27.34 -2.32 26.68 -3 26 C-2.01 26 -1.02 26 0 26 C0 17.42 0 8.84 0 0 Z " fill="#797575" transform="translate(232,145)"/>
<path d="M0 0 C0.66 0.33 1.32 0.66 2 1 C4.00800456 0.71887936 6.01014051 0.38932033 8 0 C7.67 0.99 7.34 1.98 7 3 C6.34 3 5.68 3 5 3 C3.47620549 3.74483985 1.97878697 4.54438264 0.5 5.375 C-0.69109375 6.03628906 -0.69109375 6.03628906 -1.90625 6.7109375 C-4.11165721 7.95737852 -4.11165721 7.95737852 -6 10 C-6 8.68 -6 7.36 -6 6 C-5.01 5.67 -4.02 5.34 -3 5 C-2.6278958 3.67696283 -2.29369827 2.34262065 -2 1 C-1.34 0.67 -0.68 0.34 0 0 Z " fill="#A8A2A5" transform="translate(369,290)"/>
<path d="M0 0 C1.19354869 3.72983966 1.40965996 7.10823039 1 11 C-1.73544698 14.49529336 -3.69777025 16.13587693 -8 17 C-7.50628906 16.02417969 -7.01257813 15.04835938 -6.50390625 14.04296875 C-5.85666469 12.75786595 -5.20953512 11.47270675 -4.5625 10.1875 C-4.23701172 9.54490234 -3.91152344 8.90230469 -3.57617188 8.24023438 C-2.20767324 5.51734534 -0.96516735 2.89550206 0 0 Z " fill="#B3ADAC" transform="translate(390,332)"/>
<path d="M0 0 C1.98 0.99 3.96 1.98 6 3 C6.33 2.01 6.66 1.02 7 0 C8 2 8 2 7.44140625 3.9453125 C7.15136719 4.66460937 6.86132812 5.38390625 6.5625 6.125 C6.27503906 6.84945313 5.98757813 7.57390625 5.69140625 8.3203125 C5.46324219 8.87460937 5.23507812 9.42890625 5 10 C4.34 10 3.68 10 3 10 C0 3.375 0 3.375 0 0 Z " fill="#948A8A" transform="translate(382,306)"/>
<path d="M0 0 C3.3 1.65 6.6 3.3 10 5 C10 5.66 10 6.32 10 7 C11.32 7.66 12.64 8.32 14 9 C11 10 11 10 8.08203125 8.56640625 C7.00308594 7.90511719 5.92414063 7.24382812 4.8125 6.5625 C3.72582031 5.90378906 2.63914062 5.24507813 1.51953125 4.56640625 C0.68808594 4.04949219 -0.14335938 3.53257812 -1 3 C-0.67 2.01 -0.34 1.02 0 0 Z " fill="#1B1415" transform="translate(91,351)"/>
<path d="M0 0 C0.66 0.33 1.32 0.66 2 1 C1.01 2.2684375 1.01 2.2684375 0 3.5625 C-2.25272405 7.43436947 -2.35177696 9.60278797 -2 14 C-2.99 13.34 -3.98 12.68 -5 12 C-5.5 8.6875 -5.5 8.6875 -5 5 C-2.5 2.0625 -2.5 2.0625 0 0 Z " fill="#A9A5A5" transform="translate(163,215)"/>
<path d="M0 0 C0 0.99 0 1.98 0 3 C-2.65228812 4.07525194 -5.28368454 5.09456151 -8 6 C-8.99 5.34 -9.98 4.68 -11 4 C-9.73760288 3.13341385 -8.46472499 2.28207941 -7.1875 1.4375 C-6.47980469 0.96183594 -5.77210938 0.48617188 -5.04296875 -0.00390625 C-3 -1 -3 -1 0 0 Z " fill="#302F30" transform="translate(199,364)"/>
<path d="M0 0 C1.98 0.99 3.96 1.98 6 3 C5.34 4.32 4.68 5.64 4 7 C3.34 7 2.68 7 2 7 C2 6.34 2 5.68 2 5 C1.34 5 0.68 5 0 5 C0 4.34 0 3.68 0 3 C-1.65 3.66 -3.3 4.32 -5 5 C-4.34 4.01 -3.68 3.02 -3 2 C-2.01 2 -1.02 2 0 2 C0 1.34 0 0.68 0 0 Z M-1 5 C-0.34 5.66 0.32 6.32 1 7 C0.34 7 -0.32 7 -1 7 C-1 6.34 -1 5.68 -1 5 Z " fill="#DCDAD9" transform="translate(381,351)"/>
<path d="M0 0 C0 2 0 4 0 6 C-3.93673644 4.68775452 -6.22719294 3.08089673 -9 0 C-5.52176885 -1.15941038 -3.54104422 -0.70820884 0 0 Z " fill="#1A1517" transform="translate(90,347)"/>
<path d="M0 0 C0.763125 0.20625 1.52625 0.4125 2.3125 0.625 C1.9825 2.275 1.6525 3.925 1.3125 5.625 C0.3225 5.955 -0.6675 6.285 -1.6875 6.625 C-2.120625 5.6659375 -2.120625 5.6659375 -2.5625 4.6875 C-3.51573451 2.47293921 -3.51573451 2.47293921 -5.6875 1.625 C-2.6875 -0.375 -2.6875 -0.375 0 0 Z " fill="#A79B9C" transform="translate(204.6875,287.375)"/>
<path d="M0 0 C2.48794878 3.31726504 3.52821942 4.99613909 4.6875 8.75 C5.06455078 9.94882812 5.06455078 9.94882812 5.44921875 11.171875 C5.63097656 11.77515625 5.81273437 12.3784375 6 13 C5.34 12.67 4.68 12.34 4 12 C4 11.34 4 10.68 4 10 C2.68 10 1.36 10 0 10 C0 6.7 0 3.4 0 0 Z " fill="#B3AFAD" transform="translate(282,292)"/>
<path d="M0 0 C0.515625 0.37125 1.03125 0.7425 1.5625 1.125 C-3.72980769 4.20192308 -3.72980769 4.20192308 -7.3125 3.8125 C-8.01375 3.585625 -8.715 3.35875 -9.4375 3.125 C-9.4375 2.465 -9.4375 1.805 -9.4375 1.125 C-3.0375 -1.09038462 -3.0375 -1.09038462 0 0 Z " fill="#1B1618" transform="translate(185.4375,378.875)"/>
<path d="M0 0 C6.93 0.495 6.93 0.495 14 1 C14 1.33 14 1.66 14 2 C7.565 2.495 7.565 2.495 1 3 C1 5.31 1 7.62 1 10 C0.67 10 0.34 10 0 10 C0 6.7 0 3.4 0 0 Z " fill="#82797D" transform="translate(248,174)"/>
<path d="M0 0 C3.85452121 1.9272606 7.04610079 4.89063241 10 8 C8.02 8.33 6.04 8.66 4 9 C3.67 8.34 3.34 7.68 3 7 C2.484375 6.54625 1.96875 6.0925 1.4375 5.625 C0 4 0 4 0 0 Z " fill="#9D9896" transform="translate(198,165)"/>
<path d="M0 0 C-1.36983503 3.16115776 -1.9890638 3.9927092 -5 6 C-7.32387947 6.39387788 -9.65793749 6.73486085 -12 7 C-3.55172414 0 -3.55172414 0 0 0 Z " fill="#2C2B2B" transform="translate(367,370)"/>
<path d="M0 0 C0.66 0 1.32 0 2 0 C2.33 1.32 2.66 2.64 3 4 C2.01 4.33 1.02 4.66 0 5 C-0.33 5.66 -0.66 6.32 -1 7 C-3.5625 7.625 -3.5625 7.625 -6 8 C-5.04956626 6.66102417 -4.08940853 5.32894573 -3.125 4 C-2.59132813 3.2575 -2.05765625 2.515 -1.5078125 1.75 C-1.01023437 1.1725 -0.51265625 0.595 0 0 Z " fill="#AAA7A6" transform="translate(113,317)"/>
<path d="M0 0 C-0.5775 0.268125 -1.155 0.53625 -1.75 0.8125 C-4.04784671 1.92423585 -4.04784671 1.92423585 -5.9375 3.625 C-8.46559669 5.31039779 -10.02167594 5.24819367 -13 5 C-9.01056314 0.61161946 -5.91391458 -0.2688143 0 0 Z " fill="#B4B1B2" transform="translate(159,174)"/>
<path d="M0 0 C1.68178661 2.52267991 2.90106742 4.81091823 4.125 7.5625 C4.47820312 8.34753906 4.83140625 9.13257813 5.1953125 9.94140625 C6 12 6 12 6 14 C5.34 14 4.68 14 4 14 C3.67 13.01 3.34 12.02 3 11 C2.34 10.67 1.68 10.34 1 10 C0.5859375 7.71484375 0.5859375 7.71484375 0.375 4.9375 C0.30023438 4.01839844 0.22546875 3.09929687 0.1484375 2.15234375 C0.09945312 1.44207031 0.05046875 0.73179687 0 0 Z " fill="#9E9D9C" transform="translate(91,263)"/>
<path d="M0 0 C1.32 0.66 2.64 1.32 4 2 C3.34 3.32 2.68 4.64 2 6 C-0.475 5.01 -0.475 5.01 -3 4 C-2.01 2.68 -1.02 1.36 0 0 Z " fill="#232323" transform="translate(129,367)"/>
<path d="M0 0 C5.53846154 0.61538462 5.53846154 0.61538462 7.875 2.5625 C8.431875 3.2740625 8.431875 3.2740625 9 4 C8.67 4.99 8.34 5.98 8 7 C6.68 6.67 5.36 6.34 4 6 C4.66 6 5.32 6 6 6 C5.566875 5.566875 5.13375 5.13375 4.6875 4.6875 C3.125 3.125 1.5625 1.5625 0 0 Z " fill="#9B9597" transform="translate(257,189)"/>
<path d="M0 0 C2.31 0 4.62 0 7 0 C7 0.66 7 1.32 7 2 C5.25 3.6875 5.25 3.6875 3 5 C0.75 4.6875 0.75 4.6875 -1 4 C-0.01 3.34 0.98 2.68 2 2 C1.34 1.34 0.68 0.68 0 0 Z " fill="#999294" transform="translate(297,170)"/>
<path d="M0 0 C-0.5 1.875 -0.5 1.875 -2 4 C-4.65177645 4.98494554 -7.20547307 5.45912382 -10 6 C-7.35570758 3.077361 -4.105808 0 0 0 Z " fill="#AEAAAB" transform="translate(81,218)"/>
<path d="M0 0 C0 0.66 0 1.32 0 2 C-4.1795645 4.78637633 -6.14668677 3.79562512 -11 3 C-11 2.67 -11 2.34 -11 2 C-9.5422647 1.664061 -8.08378894 1.33133376 -6.625 1 C-5.40683594 0.7215625 -5.40683594 0.7215625 -4.1640625 0.4375 C-2 0 -2 0 0 0 Z " fill="#B1AFAE" transform="translate(293,177)"/>
<path d="M0 0 C0.66 0.33 1.32 0.66 2 1 C0.35 2.65 -1.3 4.3 -3 6 C-3.99 5.67 -4.98 5.34 -6 5 C-6 4.34 -6 3.68 -6 3 C-4.03533587 1.93224776 -2.03144641 0.93446535 0 0 Z " fill="#A6A2A3" transform="translate(345,254)"/>
<path d="M0 0 C3.11198065 1.49836105 6.0534615 3.19933758 9 5 C7.68 5.33 6.36 5.66 5 6 C5 5.34 5 4.68 5 4 C3.68 4 2.36 4 1 4 C0.67 2.68 0.34 1.36 0 0 Z " fill="#A8A6A5" transform="translate(140,231)"/>
<path d="M0 0 C3.3 0.99 6.6 1.98 10 3 C10 3.33 10 3.66 10 4 C6.7 4 3.4 4 0 4 C0 2.68 0 1.36 0 0 Z " fill="#968A8C" transform="translate(300,227)"/>
<path d="M0 0 C0.33 1.32 0.66 2.64 1 4 C-1.31 4.33 -3.62 4.66 -6 5 C-4.6875 3.5 -4.6875 3.5 -3 2 C-2.01 2 -1.02 2 0 2 C0 1.34 0 0.68 0 0 Z " fill="#BDBAB9" transform="translate(204,338)"/>
<path d="M0 0 C0.33 0.66 0.66 1.32 1 2 C0.0625 4.125 0.0625 4.125 -1 6 C-2.65 6 -4.3 6 -6 6 C-6 5.34 -6 4.68 -6 4 C-4.35 3.67 -2.7 3.34 -1 3 C-0.67 2.01 -0.34 1.02 0 0 Z " fill="#AFACAC" transform="translate(290,327)"/>
<path d="M0 0 C0.66 0.33 1.32 0.66 2 1 C2 3.64 2 6.28 2 9 C-0.475 8.01 -0.475 8.01 -3 7 C-2.34 6.67 -1.68 6.34 -1 6 C-0.34227572 2.97065509 -0.34227572 2.97065509 0 0 Z " fill="#736F6D" transform="translate(146,212)"/>
<path d="" fill="#000000" transform="translate(0,0)"/>
<path d="" fill="#000000" transform="translate(0,0)"/>
<path d="" fill="#000000" transform="translate(0,0)"/>
<path d="" fill="#000000" transform="translate(0,0)"/>
<path d="" fill="#000000" transform="translate(0,0)"/>
<path d="" fill="#000000" transform="translate(0,0)"/>
<path d="" fill="#000000" transform="translate(0,0)"/>
<path d="" fill="#000000" transform="translate(0,0)"/>
<path d="" fill="#000000" transform="translate(0,0)"/>
<path d="" fill="#000000" transform="translate(0,0)"/>
<path d="" fill="#000000" transform="translate(0,0)"/>
<path d="" fill="#000000" transform="translate(0,0)"/>
<path d="" fill="#000000" transform="translate(0,0)"/>
<path d="" fill="#000000" transform="translate(0,0)"/>
<path d="" fill="#000000" transform="translate(0,0)"/>
<path d="" fill="#000000" transform="translate(0,0)"/>
<path d="" fill="#000000" transform="translate(0,0)"/>
<path d="" fill="#000000" transform="translate(0,0)"/>
<path d="" fill="#000000" transform="translate(0,0)"/>
<path d="" fill="#000000" transform="translate(0,0)"/>
<path d="" fill="#000000" transform="translate(0,0)"/>
<path d="" fill="#000000" transform="translate(0,0)"/>
<path d="" fill="#000000" transform="translate(0,0)"/>
<path d="" fill="#000000" transform="translate(0,0)"/>
<path d="" fill="#000000" transform="translate(0,0)"/>
<path d="" fill="#000000" transform="translate(0,0)"/>
<path d="" fill="#000000" transform="translate(0,0)"/>
<path d="" fill="#000000" transform="translate(0,0)"/>
<path d="" fill="#000000" transform="translate(0,0)"/>
<path d="" fill="#000000" transform="translate(0,0)"/>
<path d="" fill="#000000" transform="translate(0,0)"/>
<path d="" fill="#000000" transform="translate(0,0)"/>
<path d="" fill="#000000" transform="translate(0,0)"/>
<path d="" fill="#000000" transform="translate(0,0)"/>
<path d="" fill="#000000" transform="translate(0,0)"/>
<path d="" fill="#000000" transform="translate(0,0)"/>
<path d="" fill="#000000" transform="translate(0,0)"/>
<path d="" fill="#000000" transform="translate(0,0)"/>
<path d="" fill="#000000" transform="translate(0,0)"/>
<path d="" fill="#000000" transform="translate(0,0)"/>
<path d="" fill="#000000" transform="translate(0,0)"/>
<path d="" fill="#000000" transform="translate(0,0)"/>
<path d="" fill="#000000" transform="translate(0,0)"/>
<path d="" fill="#000000" transform="translate(0,0)"/>
<path d="" fill="#000000" transform="translate(0,0)"/>
<path d="" fill="#000000" transform="translate(0,0)"/>
<path d="" fill="#000000" transform="translate(0,0)"/>
<path d="" fill="#000000" transform="translate(0,0)"/>
<path d="" fill="#000000" transform="translate(0,0)"/>
<path d="" fill="#000000" transform="translate(0,0)"/>
<path d="" fill="#000000" transform="translate(0,0)"/>
<path d="" fill="#000000" transform="translate(0,0)"/>
<path d="" fill="#000000" transform="translate(0,0)"/>
<path d="" fill="#000000" transform="translate(0,0)"/>
<path d="" fill="#000000" transform="translate(0,0)"/>
<path d="" fill="#000000" transform="translate(0,0)"/>
<path d="" fill="#000000" transform="translate(0,0)"/>
<path d="" fill="#000000" transform="translate(0,0)"/>
<path d="" fill="#000000" transform="translate(0,0)"/>
<path d="" fill="#000000" transform="translate(0,0)"/>
<path d="" fill="#000000" transform="translate(0,0)"/>
<path d="" fill="#000000" transform="translate(0,0)"/>
<path d="" fill="#000000" transform="translate(0,0)"/>
<path d="" fill="#000000" transform="translate(0,0)"/>
</svg>
